<?xml version="1.0" encoding="utf-8"?>
<!-- Generator: Adobe Illustrator 24.0.2, SVG Export Plug-In . SVG Version: 6.00 Build 0)  -->
<svg version="1.1" id="Layer_1" xmlns="http://www.w3.org/2000/svg" xmlns:xlink="http://www.w3.org/1999/xlink" x="0px" y="0px"
	 viewBox="0 0 512 512" style="enable-background:new 0 0 512 512;" xml:space="preserve">
<style type="text/css">
	.st0{fill:#2E3192;}
	.st1{fill:#FFFFFF;}
	.st2{fill:#F15A24;}
</style>
<g>
	<g>
		<g>
			<polygon class="st0" points="132.39,161.99 127.31,179.45 176.14,228.28 119.69,239.12 73.77,193.2 94.56,121.68 447.47,42.75 
				384.63,105.6 			"/>
		</g>
		<g>
			<polygon class="st2" points="468,63.27 389.07,416.18 317.55,436.98 271.57,391.06 282.47,334.61 331.3,383.44 348.76,378.36 
				405.15,126.12 			"/>
		</g>
	</g>
	<polygon class="st2" points="274.53,236.22 142.26,261.72 195.65,315.1 249.03,368.48 	"/>
	<path class="st2" d="M150.11,446.25c-0.01-3.57-0.89-6.91-2.35-9.92l63.9-63.9l-7.71-13.79l-66.94,66.94
		c-3.01-1.45-6.35-2.33-9.91-2.33c-12.69,0-22.97,10.29-23,23c0,12.69,10.29,22.97,23,23C139.82,469.22,150.11,458.93,150.11,446.25
		z M127.11,456.87c-5.89,0-10.65-4.76-10.65-10.65c0-5.89,4.76-10.65,10.65-10.65c5.89,0,10.65,4.76,10.65,10.65
		C137.76,452.11,132.99,456.87,127.11,456.87z"/>
	<path class="st2" d="M90.01,386.14c-0.01-3.57-0.89-6.91-2.35-9.92l63.9-63.9l-7.71-13.79l-66.94,66.94
		c-3.01-1.45-6.35-2.33-9.91-2.33c-12.69,0-22.97,10.29-23,23c0,12.69,10.29,22.97,23,23C79.72,409.12,90.01,398.83,90.01,386.14z
		 M67,396.77c-5.89,0-10.65-4.76-10.65-10.65c0-5.89,4.76-10.65,10.65-10.65c5.89,0,10.65,4.76,10.65,10.65
		C77.66,392,72.89,396.77,67,396.77z"/>
	<path class="st2" d="M158.39,375.84c-0.01-3.57-0.89-6.91-2.35-9.92l63.9-63.9l-7.71-13.79l-66.94,66.94
		c-3.01-1.45-6.35-2.33-9.91-2.33c-12.69,0-22.97,10.29-23,23c0,12.69,10.29,22.97,23,23C148.1,398.81,158.39,388.52,158.39,375.84z
		 M135.38,386.46c-5.89,0-10.65-4.76-10.65-10.65c0-5.89,4.76-10.65,10.65-10.65c5.89,0,10.65,4.76,10.65,10.65
		C146.04,381.69,141.27,386.46,135.38,386.46z"/>
</g>
</svg>
