<?xml version="1.0" encoding="utf-8"?>
<!-- Generator: Adobe Illustrator 24.0.2, SVG Export Plug-In . SVG Version: 6.00 Build 0)  -->
<svg version="1.1" id="Layer_1" xmlns="http://www.w3.org/2000/svg" xmlns:xlink="http://www.w3.org/1999/xlink" x="0px" y="0px"
	 viewBox="0 0 512 512" style="enable-background:new 0 0 512 512;" xml:space="preserve">
<style type="text/css">
	.st0{fill:#2E3192;}
	.st1{fill:#FFFFFF;}
	.st2{fill:#F15A24;}
</style>
<rect x="-10" y="-14.5" class="st0" width="532" height="541"/>
<g>
	<g>
		<g>
			<polygon class="st1" points="132.53,162.1 127.46,179.54 176.23,228.31 119.85,239.14 73.99,193.28 94.75,121.84 447.25,43 
				384.47,105.77 			"/>
		</g>
		<g>
			<polygon class="st2" points="467.75,63.5 388.91,416 317.47,436.76 271.56,390.9 282.44,334.52 331.21,383.29 348.65,378.22 
				404.98,126.28 			"/>
		</g>
	</g>
	<polygon class="st2" points="274.51,236.24 142.4,261.72 195.72,315.03 249.03,368.35 	"/>
	<path class="st2" d="M150.24,446.02c-0.01-3.57-0.89-6.9-2.34-9.91l63.83-63.83l-7.7-13.77l-66.86,66.86
		c-3.01-1.45-6.34-2.33-9.9-2.33c-12.67,0-22.95,10.28-22.98,22.98c0,12.67,10.28,22.95,22.98,22.98
		C139.96,468.97,150.24,458.69,150.24,446.02z M127.26,456.63c-5.88,0-10.64-4.76-10.64-10.64c0-5.88,4.76-10.64,10.64-10.64
		c5.88,0,10.64,4.76,10.64,10.64C137.9,451.87,133.14,456.63,127.26,456.63z"/>
	<path class="st2" d="M90.2,385.99c-0.01-3.57-0.89-6.9-2.34-9.91l63.83-63.83l-7.7-13.77l-66.86,66.86
		c-3.01-1.45-6.34-2.33-9.9-2.33c-12.67,0-22.95,10.28-22.98,22.98c0,12.67,10.28,22.95,22.98,22.98
		C79.93,408.94,90.2,398.66,90.2,385.99z M67.23,396.6c-5.88,0-10.64-4.76-10.64-10.64c0-5.88,4.76-10.64,10.64-10.64
		c5.88,0,10.64,4.76,10.64,10.64C77.87,391.84,73.11,396.6,67.23,396.6z"/>
	<path class="st2" d="M158.5,375.7c-0.01-3.57-0.89-6.9-2.34-9.91l63.83-63.83l-7.7-13.77l-66.86,66.86
		c-3.01-1.45-6.34-2.33-9.9-2.33c-12.67,0-22.95,10.28-22.98,22.98c0,12.67,10.28,22.95,22.98,22.98
		C148.23,398.64,158.5,388.37,158.5,375.7z M135.53,386.3c-5.88,0-10.64-4.76-10.64-10.64c0-5.88,4.76-10.64,10.64-10.64
		c5.88,0,10.64,4.76,10.64,10.64C146.17,381.55,141.41,386.3,135.53,386.3z"/>
</g>
</svg>
