<?xml version="1.0" encoding="utf-8"?>
<!-- Generator: Adobe Illustrator 24.0.2, SVG Export Plug-In . SVG Version: 6.00 Build 0)  -->
<svg version="1.1" id="Layer_1" xmlns="http://www.w3.org/2000/svg" xmlns:xlink="http://www.w3.org/1999/xlink" x="0px" y="0px"
	 viewBox="0 0 2560 624" style="enable-background:new 0 0 2560 624;" xml:space="preserve">
<style type="text/css">
	.st0{fill:#2E3192;}
	.st1{fill:#F15A24;}
</style>
<g>
	<g>
		<path class="st0" d="M739.8,429.04V193.99h41.06v235.04H739.8z"/>
		<path class="st0" d="M839.71,429.04c-6.25,0-11.69-1.78-16.33-5.34c-4.64-3.55-6.95-8.78-6.95-15.68c0-6.03,2.8-11.85,8.41-17.46
			l156.16-157.45H819.34v-39.12h205.62c6.03,0,11.42,1.78,16.16,5.34c4.74,3.55,7.11,8.78,7.11,15.68c0,6.03-2.8,11.85-8.41,17.46
			L883.68,389.92h163.59v39.12H839.71z"/>
		<path class="st0" d="M1083.15,429.04V193.99h41.06v193.98h158.1v41.06H1083.15z"/>
		<path class="st0" d="M1370.89,429.04v-89.23l-124.8-145.81h55.28l91.5,108.31l91.82-108.31h52.37l-125.12,145.81v89.23H1370.89z"
			/>
		<path class="st1" d="M1636.96,429.04V235.05h-89.23v-41.06h219.52v41.06h-89.23v193.98H1636.96z"/>
		<path class="st1" d="M1794.41,429.04V193.99h209.82v41.06h-169.09v152.92h169.41v41.06H1794.41z M1865.21,326.87v-34.6h130.29
			v34.6H1865.21z"/>
		<path class="st1" d="M2147.13,429.04c-16.39,0-31.53-3.07-45.42-9.22c-13.91-6.14-25.98-14.55-36.21-25.22
			c-10.24-10.67-18.21-23.33-23.93-37.99s-8.57-30.5-8.57-47.53c0-17.24,2.86-32.98,8.57-47.2c5.71-14.22,13.69-26.35,23.93-36.37
			c10.23-10.02,22.31-17.78,36.21-23.28c13.9-5.5,29.04-8.25,45.42-8.25h127.38v41.06h-127.38c-10.57,0-20.32,1.89-29.26,5.66
			c-8.94,3.78-16.65,9-23.12,15.68c-6.46,6.69-11.53,14.66-15.19,23.93c-3.67,9.27-5.5,19.51-5.5,30.71
			c0,10.99,1.83,21.23,5.5,30.71c3.66,9.49,8.73,17.62,15.19,24.41s14.17,12.12,23.12,16c8.94,3.88,18.7,5.82,29.26,5.82h127.38
			v41.06H2147.13z"/>
		<path class="st1" d="M2307.81,430.01V193.99h41.06v236.01H2307.81z M2496.94,430.01V327.84h-118.33v-36.53h118.33v-97.32H2538
			v236.01H2496.94z"/>
	</g>
	<g>
		<g>
			<g>
				<polygon class="st0" points="144.7,181.49 137.65,205.73 205.44,273.51 127.08,288.57 63.33,224.82 92.19,125.53 582.12,15.96 
					494.87,103.2 				"/>
			</g>
			<g>
				<polygon class="st1" points="610.61,44.45 501.04,534.37 401.75,563.24 337.93,499.49 353.06,421.13 420.84,488.91 
					445.08,481.86 523.36,131.7 				"/>
			</g>
		</g>
		<polygon class="st1" points="342.03,284.54 158.41,319.94 232.52,394.05 306.63,468.16 		"/>
		<path class="st1" d="M169.31,576.11c-0.01-4.96-1.24-9.59-3.26-13.77l88.72-88.72l-10.7-19.14l-92.93,92.93
			c-4.18-2.01-8.81-3.24-13.76-3.24c-17.61,0-31.89,14.28-31.93,31.93c0,17.61,14.28,31.89,31.93,31.93
			C155.02,608,169.31,593.72,169.31,576.11z M137.37,590.86c-8.17,0-14.79-6.61-14.79-14.79c0-8.17,6.61-14.79,14.79-14.79
			c8.17,0,14.79,6.61,14.79,14.79C152.16,584.24,145.55,590.86,137.37,590.86z"/>
		<path class="st1" d="M85.87,492.67c-0.01-4.96-1.24-9.59-3.26-13.77l88.72-88.72l-10.7-19.14L67.7,463.98
			c-4.18-2.01-8.81-3.24-13.76-3.24c-17.61,0-31.89,14.28-31.93,31.93c0,17.61,14.28,31.89,31.93,31.93
			C71.59,524.56,85.87,510.28,85.87,492.67z M53.93,507.42c-8.17,0-14.79-6.61-14.79-14.79c0-8.17,6.61-14.79,14.79-14.79
			c8.17,0,14.79,6.61,14.79,14.79C68.72,500.8,62.11,507.42,53.93,507.42z"/>
		<path class="st1" d="M180.8,478.36c-0.01-4.96-1.24-9.59-3.26-13.77l88.72-88.72l-10.7-19.14l-92.93,92.93
			c-4.18-2.01-8.81-3.24-13.76-3.24c-17.61,0-31.89,14.28-31.93,31.93c0,17.61,14.28,31.89,31.93,31.93
			C166.51,510.25,180.8,495.97,180.8,478.36z M148.86,493.11c-8.17,0-14.79-6.61-14.79-14.79c0-8.17,6.61-14.79,14.79-14.79
			c8.17,0,14.79,6.61,14.79,14.79C163.65,486.49,157.04,493.11,148.86,493.11z"/>
	</g>
</g>
</svg>
